<?xml version="1.0" encoding="UTF-8"?>
<svg width="124px" height="33px" viewBox="0 0 124 33" version="1.1" xmlns="http://www.w3.org/2000/svg" xmlns:xlink="http://www.w3.org/1999/xlink">
    <!-- Generator: Sketch 49 (51002) - http://www.bohemiancoding.com/sketch -->
    <title>logo-epic-it</title>
    <desc>Created with Sketch.</desc>
    <defs></defs>
    <g id="Page-1" stroke="none" stroke-width="1" fill="none" fill-rule="evenodd">
        <g id="Project-home-mob-v1.0" transform="translate(-90.000000, -18.000000)" fill-rule="nonzero">
            <g id="logo-epic-it" transform="translate(90.000000, 18.000000)">
                <polygon id="Shape" fill="#FFFFFF" points="54.6582423 12 54.6582423 16.1760094 43.8465988 16.1760094 43.8465988 20.5021835 53.5708541 20.5021835 53.5708541 24.4978761 43.8465988 24.4978761 43.8465988 28.8540832 55 28.8540832 55 33 39 33 39 12"></polygon>
                <path d="M71.7486598,13.8777145 C73.2495533,15.1295043 74,17.0522086 74,19.6459467 C74,22.2396251 73.2291395,24.1373616 71.6873579,25.3390369 C70.1456371,26.5407718 67.7921676,27.1416094 64.6270102,27.1416094 L61.7783869,27.1416094 L61.7783869,33 L57,33 L57,12 L64.5657692,12 C67.8534695,12 70.2477664,12.6259247 71.7486598,13.8777145 Z M68.2414514,22.1395153 C68.8132174,21.5085852 69.09907,20.5872769 69.09907,19.375531 C69.09907,18.1638447 68.7263984,17.3026023 67.9810551,16.7918635 C67.2357118,16.2811248 66.0768695,16.0257851 64.5044673,16.0257851 L61.7783869,16.0257851 L61.7783869,23.085851 L64.9945785,23.085851 C66.5873944,23.085851 67.6696854,22.7703859 68.2414514,22.1395153 Z" id="Shape" fill="#FFFFFF"></path>
                <rect id="Rectangle-path" fill="#FFFFFF" x="77" y="12" width="5" height="21"></rect>
                <path d="M95.0839722,28.5574138 C97.4249465,28.5574138 99.3384011,27.6344099 100.824395,25.788402 L103.877843,28.9225594 C101.455471,31.6408733 98.6004905,33 95.3129641,33 C92.025437,33 89.3180514,31.9654606 87.1908673,29.8962613 C85.0636224,27.8271223 84,25.2153345 84,22.0608375 C84,18.9064009 85.0839714,16.2743339 87.2519157,14.1645762 C89.4198593,12.0548185 92.0712229,11 95.206129,11 C98.7073856,11 101.638676,12.328708 104,14.9861843 L101.038125,18.3333333 C99.5317808,16.4670464 97.6590257,15.5339029 95.4198593,15.5339029 C93.6285015,15.5339029 92.0967207,16.11711 90.824456,17.2835243 C89.5521906,18.4499989 88.9160286,20.0221172 88.9160286,22 C88.9160286,23.9778828 89.5165191,25.5652104 90.7175609,26.7621038 C91.9186027,27.9589972 93.3740726,28.5574138 95.0839722,28.5574138 Z" id="Shape" fill="#FFFFFF"></path>
                <rect id="Rectangle-path" fill="#FFFFFF" x="111" y="22" width="2" height="11"></rect>
                <polygon id="Shape" fill="#FFFFFF" points="120.870825 23.6995756 120.870825 33 119.129175 33 119.129175 23.6995756 116 23.6995756 116 22 124 22 124 23.6995756"></polygon>
                <g id="Group">
                    <polygon id="Shape" fill="#007CBB" points="16.3206356 0 32.6412711 32.8089316 0 32.8089316"></polygon>
                    <polygon id="Shape" fill="#00578E" points="12.4791603 7.72241297 24.9583807 32.8089316 5.68434189e-14 32.8089316"></polygon>
                    <polygon id="Shape" fill="#003D69" points="8.95506842 14.8068681 17.9100768 32.8089316 0 32.8089316"></polygon>
                </g>
            </g>
        </g>
    </g>
</svg>